<mxfile host="app.diagrams.net" modified="2023-11-06T11:52:10.931Z" agent="Mozilla/5.0 (X11; Linux x86_64) AppleWebKit/537.36 (KHTML, like Gecko) Chrome/118.0.0.0 Safari/537.36" version="22.0.8" etag="8Kt21F15M2w1VxbFRX3v" type="github">
  <diagram name="PÃ¡gina-1" id="DmYrrX3Tbkf30YKX38UH">
    <mxGraphModel>
      <root>
        <mxCell id="0" />
        <mxCell id="1" parent="0" />
      </root>
    </mxGraphModel>
  </diagram>
</mxfile>
